<svg width="192" height="48" viewBox="0 0 192 48" fill="none" xmlns="http://www.w3.org/2000/svg">
<path d="M44.6039 14.6006C43.7326 12.6084 42.5795 10.7518 41.1798 9.08778C39.1107 6.55452 36.5286 4.48815 33.6034 3.02471C30.6782 1.56128 27.4761 0.733927 24.2082 0.597116C20.9402 0.460306 17.6803 1.01713 14.6429 2.23098C11.6057 3.44481 8.85987 5.28813 6.58632 7.6396C4.31274 9.99106 2.56294 12.7974 1.45207 15.8739C0.341203 18.9502 -0.105557 22.2271 0.141218 25.4886C0.388011 28.7502 1.32271 31.9225 2.88383 34.7967C4.44495 37.6711 6.59709 40.1821 9.19859 42.1647C10.8678 43.4622 12.7123 44.517 14.6771 45.2977C17.4318 46.4267 20.3802 47.0081 23.3573 47.0098C29.5025 46.9963 35.3916 44.5467 39.7339 40.198C44.076 35.8494 46.5169 29.9567 46.5214 23.8115C46.5258 20.6416 45.873 17.5053 44.6039 14.6006ZM23.3401 5.30412C26.0137 5.30385 28.6549 5.88817 31.0786 7.01618C30.4876 7.27156 29.8662 7.44994 29.2296 7.54693C27.1351 7.85012 25.1948 8.82253 23.6983 10.319C22.2018 11.8155 21.2294 13.7559 20.9261 15.8504C20.7931 17.025 20.2588 18.1178 19.4135 18.9444C18.5683 19.771 17.4639 20.2805 16.2865 20.3873C14.1919 20.6905 12.2516 21.663 10.7551 23.1595C9.25865 24.656 8.28622 26.5963 7.98303 28.6908C7.88037 29.8078 7.40382 30.8574 6.63051 31.6698C5.29622 28.8505 4.69683 25.7394 4.8881 22.6262C5.07937 19.513 6.05508 16.4988 7.72446 13.8639C9.39381 11.2292 11.7026 9.05955 14.4359 7.55693C17.1692 6.05431 20.2382 5.26757 23.3573 5.26988L23.3401 5.30412ZM9.18147 35.7958C9.38691 35.6075 9.59236 35.4363 9.79781 35.2309C11.3209 33.7542 12.2986 31.8049 12.5713 29.7009C12.6819 28.5182 13.2099 27.4136 14.0608 26.585C14.8797 25.7327 15.9817 25.209 17.1596 25.1126C19.2542 24.8094 21.1944 23.837 22.6909 22.3405C24.1874 20.8439 25.1599 18.9037 25.4631 16.8091C25.5372 15.5722 26.068 14.4068 26.9526 13.5391C27.7917 12.7034 28.9042 12.1988 30.0856 12.1181C32.0098 11.8534 33.8044 10.9979 35.2218 9.66988C36.8358 11.0088 38.203 12.6196 39.2623 14.4294C39.1972 14.5172 39.1226 14.5977 39.0397 14.6691C38.2225 15.5289 37.1218 16.0641 35.9409 16.1757C33.8441 16.4736 31.9009 17.4443 30.4034 18.9417C28.906 20.4392 27.9353 22.3824 27.6374 24.4792C27.5167 25.6577 26.9923 26.7584 26.153 27.5946C25.3136 28.4309 24.2111 28.9512 23.032 29.0675C20.9313 29.3683 18.9838 30.3388 17.4786 31.8347C15.9735 33.3307 14.991 35.2721 14.6771 37.3709C14.585 38.2076 14.2976 39.0111 13.8382 39.7164C12.0817 38.6735 10.5085 37.349 9.18147 35.7958ZM23.3401 42.4044C21.6029 42.4063 19.8739 42.1642 18.204 41.6853C18.7753 40.6204 19.1466 39.4598 19.2997 38.2612C19.4197 37.0852 19.9417 35.9866 20.7775 35.1507C21.6134 34.3149 22.712 33.7929 23.888 33.6729C25.9856 33.3731 27.9298 32.4022 29.4298 30.9054C30.9295 29.4087 31.9045 27.4663 32.2086 25.3694C32.3286 24.1934 32.8506 23.0948 33.6864 22.259C34.5223 21.4231 35.6209 20.9011 36.7969 20.7811C38.3754 20.5758 39.88 19.9881 41.1798 19.0691C41.9016 21.8048 41.987 24.6694 41.4297 27.4432C40.8724 30.2171 39.687 32.8266 37.9647 35.0713C36.2424 37.3158 34.0288 39.1362 31.4936 40.3925C28.9586 41.6488 26.1695 42.3078 23.3401 42.3188V42.4044Z" fill="#703BDA"/>
<path d="M79.7924 15.3397V32.0734H76.436V21.1893L71.953 32.0734H69.4117L64.9047 21.1893V32.0734H61.5483V15.3397H65.3602L70.6823 27.7821L76.0045 15.3397H79.7924Z" fill="#703BDA"/>
<path d="M95.4572 25.145C95.4572 25.6244 95.4252 26.056 95.3613 26.4395H85.6519C85.7318 27.3985 86.0674 28.1497 86.6588 28.6931C87.2501 29.2365 87.9774 29.5082 88.8404 29.5082C90.087 29.5082 90.9741 28.9728 91.5015 27.9019H95.1215C94.738 29.1805 94.0028 30.2354 92.9159 31.0665C91.8291 31.8816 90.4946 32.2891 88.9123 32.2891C87.6337 32.2891 86.483 32.0094 85.4601 31.4501C84.4532 30.8747 83.6621 30.0676 83.0867 29.0287C82.5273 27.9898 82.2476 26.7912 82.2476 25.4326C82.2476 24.0582 82.5273 22.8515 83.0867 21.8126C83.6461 20.7737 84.4292 19.9746 85.4361 19.4152C86.443 18.8558 87.6018 18.5761 88.9123 18.5761C90.1749 18.5761 91.3017 18.8479 92.2926 19.3913C93.2995 19.9347 94.0747 20.7098 94.6181 21.7167C95.1775 22.7076 95.4572 23.8504 95.4572 25.145ZM91.981 24.186C91.965 23.323 91.6533 22.6357 91.046 22.1243C90.4387 21.5968 89.6955 21.3331 88.8164 21.3331C87.9853 21.3331 87.2821 21.5889 86.7067 22.1003C86.1474 22.5958 85.8037 23.291 85.6759 24.186H91.981Z" fill="#703BDA"/>
<path d="M101.263 20.8537C101.695 20.1504 102.254 19.599 102.941 19.1995C103.645 18.7999 104.444 18.6001 105.339 18.6001V22.1243H104.452C103.397 22.1243 102.598 22.372 102.054 22.8675C101.527 23.3629 101.263 24.226 101.263 25.4566V32.0734H97.907V18.7919H101.263V20.8537Z" fill="#703BDA"/>
<path d="M106.736 25.4326C106.736 24.0582 107.016 22.8595 107.576 21.8366C108.135 20.7977 108.91 19.9986 109.901 19.4392C110.892 18.8638 112.027 18.5761 113.305 18.5761C114.951 18.5761 116.31 18.9917 117.381 19.8228C118.468 20.6379 119.195 21.7886 119.562 23.275H115.942C115.751 22.6996 115.423 22.2521 114.959 21.9325C114.512 21.5968 113.953 21.429 113.281 21.429C112.322 21.429 111.563 21.7806 111.004 22.4839C110.444 23.1711 110.165 24.154 110.165 25.4326C110.165 26.6953 110.444 27.6782 111.004 28.3814C111.563 29.0687 112.322 29.4123 113.281 29.4123C114.64 29.4123 115.527 28.805 115.942 27.5903H119.562C119.195 29.0287 118.468 30.1715 117.381 31.0185C116.294 31.8656 114.935 32.2891 113.305 32.2891C112.027 32.2891 110.892 32.0094 109.901 31.4501C108.91 30.8747 108.135 30.0756 107.576 29.0527C107.016 28.0138 106.736 26.8071 106.736 25.4326Z" fill="#703BDA"/>
<path d="M121.158 25.3847C121.158 24.0422 121.422 22.8515 121.949 21.8126C122.493 20.7737 123.22 19.9746 124.131 19.4152C125.058 18.8558 126.089 18.5761 127.224 18.5761C128.214 18.5761 129.077 18.7759 129.813 19.1755C130.564 19.5751 131.163 20.0785 131.611 20.6858V18.7919H134.991V32.0734H131.611V30.1315C131.179 30.7548 130.58 31.2743 129.813 31.6898C129.062 32.0894 128.19 32.2891 127.2 32.2891C126.081 32.2891 125.058 32.0015 124.131 31.4261C123.22 30.8507 122.493 30.0436 121.949 29.0047C121.422 27.9499 121.158 26.7432 121.158 25.3847ZM131.611 25.4326C131.611 24.6175 131.451 23.9223 131.131 23.3469C130.812 22.7556 130.38 22.3081 129.837 22.0044C129.293 21.6847 128.71 21.5249 128.087 21.5249C127.463 21.5249 126.888 21.6768 126.36 21.9804C125.833 22.2841 125.402 22.7316 125.066 23.323C124.746 23.8983 124.586 24.5856 124.586 25.3847C124.586 26.1838 124.746 26.8871 125.066 27.4944C125.402 28.0857 125.833 28.5412 126.36 28.8609C126.904 29.1805 127.479 29.3404 128.087 29.3404C128.71 29.3404 129.293 29.1885 129.837 28.8849C130.38 28.5652 130.812 28.1177 131.131 27.5423C131.451 26.951 131.611 26.2478 131.611 25.4326Z" fill="#703BDA"/>
<path d="M142.177 21.5489V27.9739C142.177 28.4214 142.281 28.749 142.488 28.9568C142.712 29.1486 143.08 29.2445 143.591 29.2445H145.15V32.0734H143.04C140.211 32.0734 138.796 30.6989 138.796 27.9499V21.5489H137.214V18.7919H138.796V15.5075H142.177V18.7919H145.15V21.5489H142.177Z" fill="#703BDA"/>
<path d="M153.461 32.2891C152.183 32.2891 151.032 32.0094 150.009 31.4501C148.986 30.8747 148.179 30.0676 147.588 29.0287C147.012 27.9898 146.724 26.7912 146.724 25.4326C146.724 24.0741 147.02 22.8754 147.612 21.8366C148.219 20.7977 149.042 19.9986 150.081 19.4392C151.12 18.8638 152.278 18.5761 153.557 18.5761C154.836 18.5761 155.994 18.8638 157.033 19.4392C158.072 19.9986 158.887 20.7977 159.479 21.8366C160.086 22.8754 160.39 24.0741 160.39 25.4326C160.39 26.7912 160.078 27.9898 159.455 29.0287C158.847 30.0676 158.016 30.8747 156.961 31.4501C155.922 32.0094 154.756 32.2891 153.461 32.2891ZM153.461 29.3643C154.068 29.3643 154.636 29.2205 155.163 28.9328C155.707 28.6291 156.138 28.1816 156.458 27.5903C156.777 26.9989 156.937 26.2797 156.937 25.4326C156.937 24.17 156.602 23.2031 155.93 22.5318C155.275 21.8446 154.468 21.5009 153.509 21.5009C152.55 21.5009 151.743 21.8446 151.088 22.5318C150.448 23.2031 150.129 24.17 150.129 25.4326C150.129 26.6953 150.44 27.6702 151.064 28.3574C151.703 29.0287 152.502 29.3643 153.461 29.3643Z" fill="#703BDA"/>
<path d="M161.988 25.3847C161.988 24.0422 162.252 22.8515 162.78 21.8126C163.323 20.7737 164.058 19.9746 164.985 19.4152C165.912 18.8558 166.943 18.5761 168.078 18.5761C168.941 18.5761 169.764 18.7679 170.547 19.1515C171.33 19.5191 171.954 20.0146 172.417 20.6379V14.3328H175.821V32.0734H172.417V30.1075C172.002 30.7628 171.418 31.2902 170.667 31.6898C169.916 32.0894 169.045 32.2891 168.054 32.2891C166.935 32.2891 165.912 32.0015 164.985 31.4261C164.058 30.8507 163.323 30.0436 162.78 29.0047C162.252 27.9499 161.988 26.7432 161.988 25.3847ZM172.441 25.4326C172.441 24.6175 172.281 23.9223 171.962 23.3469C171.642 22.7556 171.21 22.3081 170.667 22.0044C170.124 21.6847 169.54 21.5249 168.917 21.5249C168.294 21.5249 167.718 21.6768 167.191 21.9804C166.663 22.2841 166.232 22.7316 165.896 23.323C165.577 23.8983 165.417 24.5856 165.417 25.3847C165.417 26.1838 165.577 26.8871 165.896 27.4944C166.232 28.0857 166.663 28.5412 167.191 28.8609C167.734 29.1805 168.31 29.3404 168.917 29.3404C169.54 29.3404 170.124 29.1885 170.667 28.8849C171.21 28.5652 171.642 28.1177 171.962 27.5423C172.281 26.951 172.441 26.2478 172.441 25.4326Z" fill="#703BDA"/>
<path d="M184.997 32.2891C183.718 32.2891 182.568 32.0094 181.545 31.4501C180.522 30.8747 179.715 30.0676 179.123 29.0287C178.548 27.9898 178.26 26.7912 178.26 25.4326C178.26 24.0741 178.556 22.8754 179.147 21.8366C179.755 20.7977 180.578 19.9986 181.617 19.4392C182.655 18.8638 183.814 18.5761 185.093 18.5761C186.371 18.5761 187.53 18.8638 188.569 19.4392C189.608 19.9986 190.423 20.7977 191.014 21.8366C191.622 22.8754 191.925 24.0741 191.925 25.4326C191.925 26.7912 191.614 27.9898 190.99 29.0287C190.383 30.0676 189.552 30.8747 188.497 31.4501C187.458 32.0094 186.292 32.2891 184.997 32.2891ZM184.997 29.3643C185.604 29.3643 186.172 29.2205 186.699 28.9328C187.242 28.6291 187.674 28.1816 187.994 27.5903C188.313 26.9989 188.473 26.2797 188.473 25.4326C188.473 24.17 188.137 23.2031 187.466 22.5318C186.811 21.8446 186.004 21.5009 185.045 21.5009C184.086 21.5009 183.279 21.8446 182.624 22.5318C181.984 23.2031 181.665 24.17 181.665 25.4326C181.665 26.6953 181.976 27.6702 182.6 28.3574C183.239 29.0287 184.038 29.3643 184.997 29.3643Z" fill="#703BDA"/>
</svg>
