<svg width="226" height="180" viewBox="0 0 226 180" fill="none" xmlns="http://www.w3.org/2000/svg">
<path d="M3.78384 122.367C15.4108 127.069 22.9758 133.396 27.8849 139.764L27.068 146.903L30.1305 142.951C37.7685 154.86 35.2057 166.157 35.2057 166.157L32.2867 166.139C17.8553 166.054 5.58257 155.46 3.53838 141.175C3.51572 141.024 3.49558 140.872 3.47544 140.721L8.82634 140.02L3.09908 136.929C2.56538 128.836 3.78384 122.367 3.78384 122.367Z" fill="#1C0E0C"/>
<path d="M2.05648 122.676C13.6847 127.379 21.2485 133.705 26.1626 140.079L25.3469 147.218L28.4081 143.265C36.0474 155.174 35.1915 166.329 35.1915 166.329L30.7053 166.343C16.2374 166.391 3.86655 155.812 1.81606 141.491C1.79467 141.338 1.77327 141.187 1.75313 141.036L7.10528 140.335L1.37677 137.246C0.839285 129.146 2.05648 122.676 2.05648 122.676Z" fill="#9362F5" stroke="black" stroke-linecap="round" stroke-linejoin="round"/>
<path d="M1.9458 142.344L20.3511 151.523" stroke="#070707" stroke-linecap="round" stroke-linejoin="round"/>
<path d="M14.0207 143.25L13.5776 128.621" stroke="#070707" stroke-linecap="round" stroke-linejoin="round"/>
<path d="M2.05664 122.676C2.05664 122.676 13.165 148.578 35.1916 166.329" stroke="#070707" stroke-linecap="round" stroke-linejoin="round"/>
<path d="M224.76 57.9456C224.76 57.9456 217.182 57.7115 220.525 70.3064C223.868 82.9014 209.873 81.6602 207.372 87.6695C206.035 90.883 213.063 106.652 201.024 112.23C191.128 116.816 180.465 121.555 177.757 131.856L174.717 106.029C174.717 106.029 172.394 94.3231 182.851 91.6634C198.528 87.6695 190.151 78.0804 194.442 72.4916C199.156 66.3615 206.505 70.3694 209.513 66.4975C211.72 63.6628 214.702 52.99 224.76 57.9456Z" fill="#9362F5" stroke="black" stroke-linecap="round" stroke-linejoin="round"/>
<path d="M224.736 57.9456C224.582 57.9468 224.428 57.9578 224.275 57.9783C223.122 57.8814 220.002 57.7983 218.033 59.4473C216.919 60.3813 216.333 61.7407 216.291 63.4878C216.204 67.1306 215.93 69.5751 214.781 71.292C213.596 73.0681 211.53 74.0071 207.871 74.4326C204.347 74.8417 201.704 76.157 200.193 78.2352C198.808 80.1472 198.407 82.7138 199.017 85.6618C199.565 88.3051 199.88 92.2072 198.271 95.8387C196.516 99.7936 192.895 102.548 187.506 104.02C184.588 104.82 182.173 106.027 180.331 107.608C178.898 108.82 177.765 110.348 177.02 112.071C175.78 114.958 176.089 117.439 176.093 117.464H176.062L175.729 114.643C175.897 113.689 176.175 112.757 176.558 111.867C177.334 110.076 178.515 108.488 180.007 107.228C181.91 105.599 184.391 104.357 187.382 103.538C199.598 100.193 199.612 90.9673 198.533 85.765C197.893 82.6798 198.329 79.9748 199.792 77.9457C201.376 75.7492 204.152 74.3633 207.815 73.9366C211.313 73.53 213.27 72.6565 214.36 71.0164C215.435 69.4027 215.694 67.0312 215.78 63.4803C215.825 61.5821 216.472 60.0955 217.703 59.0659C218.459 58.4365 219.867 57.6372 222.251 57.466C222.701 57.434 223.153 57.4248 223.604 57.4383C223.977 57.5831 224.351 57.7493 224.736 57.9456Z" fill="#070707"/>
<path d="M32.6238 126.772C32.6238 126.772 16.7964 127.527 14.5634 112.628C12.5054 98.8999 22.2581 94.4188 15.403 89.2353C8.54794 84.0518 4.39033 80.0251 7.54473 73.3526C10.4398 67.2213 8.71535 63.3204 4.36768 64.4911C4.36768 64.4911 9.40262 57.7581 16.4616 63.1782C23.0385 68.2245 15.4723 77.5844 24.1525 77.699C32.6238 77.811 38.9779 80.9113 37.7167 91.0416C37.2333 94.9135 34.4188 100.368 39.0056 106.179C45.4264 114.316 32.6238 126.772 32.6238 126.772Z" stroke="#070707" stroke-linecap="round" stroke-linejoin="round"/>
<path d="M4.2002 64.3224C4.2002 64.3224 16.9071 58.5561 14.2323 72.6892C11.8646 85.1985 24.5288 79.7898 27.9425 90.3984C31.1196 100.271 24.4948 117.016 37.7921 120.271" stroke="#070707" stroke-linecap="round" stroke-linejoin="round"/>
<path d="M220.055 116.33C216.704 128.414 211.279 136.649 205.504 142.26H198.318L202.598 144.853C191.634 153.79 180.119 152.531 180.119 152.531L178.517 137.741C182.05 125.862 192.334 120.496 201.783 118.116L203.088 123.353L205.508 117.311C213.489 115.855 220.055 116.33 220.055 116.33Z" fill="#1C0E0C"/>
<path d="M219.551 114.649C216.201 126.733 210.774 134.97 205 140.579H197.814L202.094 143.173C191.13 152.111 179.95 152.532 179.95 152.532L178.012 136.063C181.546 124.184 191.829 118.824 201.279 116.437L202.584 121.674L205.004 115.632C212.984 114.175 219.551 114.649 219.551 114.649Z" fill="#F4F1ED" stroke="#070707" stroke-linecap="round" stroke-linejoin="round"/>
<path d="M179.267 146.751L219.551 114.649" stroke="#070707" stroke-linecap="round" stroke-linejoin="round"/>
<path d="M199.998 116.774L192.942 135.853" stroke="#070707" stroke-linecap="round" stroke-linejoin="round"/>
<path d="M202.896 127.92L214.954 126.772" stroke="#070707" stroke-linecap="round" stroke-linejoin="round"/>
<path d="M181.341 145L202.09 143.171" stroke="#070707" stroke-linecap="round" stroke-linejoin="round"/>
<path d="M23.7275 24.4317H69.1113V2.3623H23.7275L29.6071 13.3977L23.7275 24.4317Z" fill="#1C0E0C"/>
<path d="M25.1548 22.92H70.5398V0.850555H25.1548L31.0344 11.8859L25.1548 22.92Z" fill="#F4F1ED" stroke="#070707" stroke-linecap="round" stroke-linejoin="round"/>
<path d="M70.5391 0.850555V90.8415" stroke="#070707" stroke-linecap="round" stroke-linejoin="round"/>
<path d="M163.065 32.8967L148.985 152.53H70.7227L84.8016 32.8967H163.065Z" fill="#EAE8FE"/>
<path d="M179.947 152.53H146.269L160.546 31.2163H165.67L179.947 152.53Z" stroke="#070707" stroke-linecap="round" stroke-linejoin="round"/>
<path d="M160.545 31.2163L146.269 152.53H68.0054L82.2832 31.2163H160.545Z" stroke="#070707" stroke-linecap="round" stroke-linejoin="round"/>
<path d="M129.591 8.14492C132.925 8.14492 136.123 9.4695 138.481 11.8273C140.838 14.185 142.163 17.3828 142.163 20.7172V31.2163H117.015V20.7172C117.015 19.0659 117.34 17.4307 117.972 15.9051C118.604 14.3795 119.53 12.9934 120.698 11.8259C121.866 10.6584 123.253 9.73244 124.778 9.10084C126.304 8.46925 127.939 8.14442 129.591 8.14492Z" fill="#F4F1ED" stroke="#070707" stroke-linecap="round" stroke-linejoin="round"/>
<path d="M121.104 8.14492C124.438 8.14492 127.636 9.4695 129.994 11.8273C132.352 14.185 133.676 17.3828 133.676 20.7172V31.2163H108.532V20.7172C108.532 17.3828 109.856 14.185 112.214 11.8273C114.572 9.4695 117.77 8.14492 121.104 8.14492V8.14492Z" stroke="#070707" stroke-linecap="round" stroke-linejoin="round"/>
<path d="M150.556 68.2534H139.093L140.553 51.5563C140.83 48.3905 143.62 45.824 146.787 45.824C149.953 45.824 152.294 48.3905 152.017 51.5563L150.556 68.2534Z" fill="white"/>
<path d="M149.549 67.2452H138.084L139.546 50.548C139.823 47.3823 142.613 44.8157 145.779 44.8157C148.945 44.8157 151.286 47.3823 151.009 50.548L149.549 67.2452Z" stroke="#070707" stroke-linecap="round" stroke-linejoin="round"/>
<path d="M146.187 50.3278C146.702 49.8341 146.754 49.0508 146.301 48.5782C145.849 48.1057 145.064 48.1229 144.549 48.6166C144.033 49.1103 143.981 49.8936 144.434 50.3661C144.886 50.8387 145.671 50.8215 146.187 50.3278Z" stroke="#070707" stroke-linecap="round" stroke-linejoin="round"/>
<path d="M145.412 49.0149L147.048 30.3541C147.103 29.7211 147.394 29.1318 147.862 28.7026C148.33 28.2733 148.943 28.0353 149.578 28.0355C149.912 28.0353 150.242 28.1009 150.55 28.2284C150.858 28.3559 151.138 28.5429 151.374 28.7787C151.61 29.0144 151.797 29.2944 151.925 29.6025C152.052 29.9106 152.118 30.2408 152.118 30.5744V31.2176" stroke="#070707" stroke-linecap="round" stroke-linejoin="round"/>
<path d="M144.654 61.2183C144.946 61.1723 145.217 61.0379 145.431 60.8331C145.615 60.6536 145.729 60.4137 145.752 60.1572C145.77 60.0423 145.762 59.9247 145.727 59.8136C145.693 59.7024 145.633 59.6008 145.553 59.5165C145.345 59.3395 145.1 59.2106 144.837 59.1389L144.247 58.9627C143.891 58.8674 143.545 58.7353 143.215 58.5687C142.947 58.4291 142.724 58.2155 142.573 57.9532C142.41 57.6368 142.348 57.2775 142.397 56.9248C142.429 56.4116 142.658 55.9306 143.035 55.5817C143.414 55.2318 143.934 55.0287 144.596 54.9725H145.2C145.495 54.9963 145.784 55.0668 146.056 55.1814C146.292 55.2869 146.496 55.4507 146.65 55.6572C146.773 55.8085 146.869 55.9785 146.937 56.1607C146.997 56.3101 147.023 56.4709 147.013 56.6315C146.999 56.7907 146.923 56.9382 146.803 57.0431C146.685 57.1552 146.529 57.2175 146.366 57.2168C146.055 57.2168 145.862 57.0494 145.806 56.7133C145.78 56.529 145.701 56.3563 145.579 56.216C145.457 56.0757 145.296 55.9738 145.117 55.9228L144.514 55.9039C144.279 55.9652 144.058 56.0721 143.864 56.2186C143.779 56.2925 143.711 56.3831 143.664 56.4848C143.616 56.5864 143.59 56.6968 143.588 56.809C143.57 56.9097 143.576 57.0131 143.603 57.1116C143.631 57.21 143.68 57.301 143.748 57.3779C143.924 57.5351 144.131 57.6542 144.356 57.7278L144.945 57.9041C145.328 58.0123 145.633 58.1109 145.859 58.1999C146.082 58.2819 146.286 58.4096 146.458 58.575C146.639 58.7501 146.776 58.9658 146.858 59.2043C146.944 59.461 146.975 59.733 146.947 60.0024C146.916 60.364 146.798 60.7128 146.604 61.0194C146.4 61.341 146.118 61.6067 145.786 61.7923C145.415 61.9996 145.002 62.1218 144.579 62.1498L143.973 62.1598C143.643 62.1286 143.322 62.04 143.023 61.898C142.773 61.7765 142.551 61.6052 142.371 61.3945C142.212 61.2136 142.091 61.0032 142.013 60.7752C141.945 60.5729 141.918 60.3588 141.935 60.1459C141.952 59.9864 142.028 59.8392 142.149 59.7343C142.273 59.6145 142.439 59.5485 142.611 59.5505C142.736 59.5455 142.86 59.5808 142.964 59.6512C143.057 59.7182 143.122 59.8187 143.144 59.9319C143.19 60.1343 143.247 60.3339 143.316 60.5298C143.37 60.673 143.456 60.8021 143.568 60.9074C143.708 61.0328 143.876 61.1226 144.057 61.1692L144.654 61.2183Z" fill="#1C0E0C"/>
<path d="M144.213 62.8547H144.192C144.159 62.8518 144.126 62.8425 144.097 62.8272C144.068 62.8119 144.042 62.791 144.02 62.7656C143.999 62.7403 143.983 62.7109 143.973 62.6794C143.963 62.6478 143.959 62.6145 143.962 62.5815L144.684 54.333C144.687 54.3 144.696 54.2678 144.711 54.2384C144.727 54.2089 144.748 54.1828 144.773 54.1615C144.798 54.1401 144.828 54.124 144.859 54.114C144.891 54.1041 144.924 54.1004 144.957 54.1033C144.99 54.1062 145.023 54.1156 145.052 54.1309C145.082 54.1462 145.108 54.1672 145.129 54.1926C145.15 54.218 145.166 54.2474 145.176 54.2791C145.186 54.3107 145.19 54.344 145.187 54.3771L144.466 62.6256C144.46 62.6886 144.431 62.7471 144.384 62.7896C144.337 62.832 144.276 62.8553 144.213 62.8547Z" fill="#1C0E0C"/>
<path d="M66.5953 91.1599H57.4569C57.4569 91.1599 48.6772 83.3847 44.8406 78.7991C44.3168 78.1686 43.8381 77.5019 43.4081 76.804C41.6283 73.9177 43.685 70.1957 47.0761 70.1768H47.1743C56.4499 70.1768 66.6003 86.9797 66.5953 91.1599Z" fill="#1C0E0C"/>
<path d="M71.6341 91.1599H65.2044C65.2044 91.1599 59.0291 85.6907 56.3316 82.4633C55.9629 82.0201 55.6264 81.5511 55.3246 81.0598C55.0408 80.5984 54.8847 80.0698 54.8724 79.5281C54.8601 78.9865 54.9919 78.4513 55.2545 77.9775C55.517 77.5036 55.9008 77.108 56.3666 76.8312C56.8323 76.5545 57.3633 76.4065 57.905 76.4025H57.968C64.4958 76.3975 71.6378 88.2195 71.6341 91.1599Z" fill="#F4F1ED"/>
<path d="M52.5201 61.3983C67.9019 61.2372 73.2528 83.2185 72.9116 91.1599H66.5953C66.5953 86.9797 56.4499 70.1768 47.1742 70.1768C43.8839 70.1768 41.9455 73.1084 42.9373 75.763C42.9373 75.763 36.5618 61.5657 52.5201 61.3983Z" fill="#9362F5" stroke="black" stroke-linecap="round" stroke-linejoin="round"/>
<path d="M111.614 87.4454C112.905 84.3539 111.167 80.7917 107.95 79.8212C93.0316 75.3212 77.7782 91.1599 77.7782 91.1599H68.0054C68.0054 91.1599 81.8641 68.086 104.937 71.5161C109.988 72.2663 116.625 77.1313 111.614 87.4454Z" fill="#9362F5" stroke="black" stroke-linecap="round" stroke-linejoin="round"/>
<path d="M111.59 87.4983C110.897 89.1195 110.048 90.6376 109.45 91.1599H100.968C100.968 91.1599 102.999 90.4727 104.96 87.4983C107.343 83.8869 106.241 79.4172 102.974 79.1113C104.651 79.1629 106.32 79.3291 107.954 79.8212C111.185 80.798 112.925 84.3942 111.59 87.4983Z" fill="#1C0E0C"/>
<path d="M118.438 90.9082H49.9119C46.9038 90.9082 44.4653 93.3467 44.4653 96.3547V164.88C44.4653 167.888 46.9038 170.327 49.9119 170.327H118.438C121.446 170.327 123.884 167.888 123.884 164.88V96.3547C123.884 93.3467 121.446 90.9082 118.438 90.9082Z" fill="#9362F5" stroke="black" stroke-linecap="round" stroke-linejoin="round"/>
<path d="M104.451 90.9082H38.0701C35.062 90.9082 32.6235 93.3467 32.6235 96.3547V164.88C32.6235 167.888 35.062 170.327 38.0701 170.327H104.451C107.459 170.327 109.897 167.888 109.897 164.88V96.3547C109.897 93.3467 107.459 90.9082 104.451 90.9082Z" fill="#F4F1ED" stroke="#070707" stroke-linecap="round" stroke-linejoin="round"/>
<path d="M65.6008 100.549C64.9074 99.8552 64.0239 99.3827 63.062 99.1912C62.1001 98.9997 61.103 99.0978 60.1968 99.473C59.2907 99.8483 58.5162 100.484 57.9713 101.299C57.4264 102.115 57.1356 103.074 57.1357 104.054V118.5H67.0533V104.054C67.0543 103.403 66.9264 102.758 66.6771 102.157C66.4278 101.555 66.062 101.009 65.6008 100.549ZM62.0952 104.199C61.8832 104.199 61.676 104.137 61.4997 104.019C61.3234 103.902 61.1859 103.735 61.1046 103.539C61.0234 103.343 61.002 103.128 61.0432 102.92C61.0843 102.712 61.1863 102.521 61.336 102.371C61.4858 102.221 61.6766 102.119 61.8845 102.077C62.0923 102.036 62.3077 102.057 62.5035 102.138C62.6993 102.219 62.8667 102.357 62.9845 102.533C63.1022 102.709 63.1651 102.916 63.1651 103.128C63.1654 103.269 63.138 103.408 63.0844 103.538C63.0308 103.669 62.9521 103.787 62.8527 103.887C62.7533 103.986 62.6353 104.066 62.5053 104.12C62.3753 104.174 62.2359 104.202 62.0952 104.202V104.199Z" fill="#F4F1ED"/>
<path d="M64.9294 99.6249C64.2358 98.931 63.3519 98.4585 62.3897 98.2671C61.4274 98.0757 60.43 98.1741 59.5237 98.5498C58.6174 98.9256 57.8429 99.5617 57.2983 100.378C56.7537 101.194 56.4635 102.153 56.4644 103.134V117.58H66.382V103.134C66.3834 102.482 66.2558 101.837 66.0065 101.234C65.7572 100.632 65.3911 100.085 64.9294 99.6249ZM61.4238 103.275C61.2122 103.275 61.0053 103.213 60.8294 103.095C60.6534 102.977 60.5163 102.81 60.4353 102.615C60.3543 102.419 60.3331 102.204 60.3744 101.997C60.4157 101.789 60.5176 101.598 60.6672 101.449C60.8169 101.299 61.0075 101.197 61.2151 101.156C61.4226 101.115 61.6377 101.136 61.8332 101.217C62.0287 101.298 62.1958 101.435 62.3134 101.611C62.431 101.787 62.4937 101.994 62.4937 102.205C62.4939 102.346 62.4663 102.485 62.4127 102.615C62.359 102.745 62.2802 102.864 62.1809 102.963C62.0815 103.063 61.9635 103.142 61.8336 103.196C61.7037 103.25 61.5645 103.278 61.4238 103.278V103.275Z" stroke="#070707" stroke-linecap="round" stroke-linejoin="round"/>
<path d="M61.4233 101.804V90.6602C61.4232 90.3346 61.4872 90.0122 61.6116 89.7114C61.7361 89.4105 61.9186 89.1371 62.1488 88.9069C62.379 88.6766 62.6523 88.4939 62.953 88.3693C63.2538 88.2446 63.5762 88.1805 63.9018 88.1805V88.1805C64.5595 88.1805 65.1902 88.4417 65.6552 88.9068C66.1203 89.3718 66.3815 90.0026 66.3815 90.6602V90.912" stroke="#070707" stroke-linecap="round" stroke-linejoin="round"/>
<path d="M63.4386 110.612C63.3493 110.405 63.2152 110.22 63.0459 110.071C62.8881 109.927 62.7044 109.813 62.5047 109.736C62.302 109.66 62.0301 109.575 61.6903 109.485H61.6663V107.768H61.6903C61.8504 107.813 61.9954 107.9 62.1105 108.02C62.2256 108.141 62.3065 108.289 62.3448 108.451C62.4254 108.743 62.5965 108.888 62.8684 108.888C62.9362 108.889 63.0035 108.876 63.0662 108.85C63.129 108.825 63.1858 108.786 63.2335 108.738C63.2813 108.692 63.3192 108.637 63.345 108.575C63.3707 108.514 63.3838 108.448 63.3833 108.382C63.3787 108.24 63.3444 108.102 63.2826 107.974C63.2109 107.817 63.1168 107.67 63.0031 107.54C62.8535 107.362 62.6648 107.221 62.4518 107.128C62.2107 107.03 61.9561 106.969 61.6966 106.947H61.6726V106.425C61.6726 106.358 61.6461 106.294 61.5989 106.247C61.5517 106.199 61.4877 106.173 61.4209 106.173C61.3541 106.173 61.2901 106.199 61.2429 106.247C61.1957 106.294 61.1691 106.358 61.1691 106.425V106.948C60.6027 106.998 60.1697 107.173 59.8701 107.474C59.7198 107.627 59.6022 107.809 59.5245 108.009C59.4468 108.209 59.4107 108.422 59.4182 108.636C59.4047 108.949 59.4853 109.259 59.6498 109.525C59.7995 109.753 60.0072 109.937 60.2515 110.059C60.5456 110.201 60.8529 110.315 61.1691 110.398V112.313C61.0078 112.272 60.858 112.195 60.7311 112.088C60.6252 111.997 60.5394 111.886 60.4794 111.76C60.4055 111.592 60.3408 111.419 60.2855 111.243C60.2565 111.144 60.1937 111.058 60.108 111C60.0148 110.94 59.9055 110.91 59.7946 110.913C59.7231 110.911 59.652 110.925 59.5858 110.952C59.5197 110.979 59.4601 111.02 59.4107 111.072C59.3626 111.118 59.3241 111.173 59.2975 111.234C59.271 111.296 59.2568 111.361 59.2559 111.428C59.2575 111.616 59.2964 111.802 59.3704 111.974C59.4569 112.173 59.5775 112.354 59.7266 112.511C59.8986 112.69 60.1027 112.836 60.3283 112.94C60.5932 113.061 60.8765 113.138 61.1666 113.166V113.56C61.1666 113.627 61.1931 113.691 61.2404 113.738C61.2876 113.786 61.3516 113.812 61.4184 113.812C61.4851 113.812 61.5492 113.786 61.5964 113.738C61.6436 113.691 61.6701 113.627 61.6701 113.56V113.159H61.694C62.0526 113.137 62.401 113.031 62.7111 112.849C62.9847 112.69 63.2093 112.458 63.3606 112.18C63.5075 111.909 63.5833 111.606 63.5809 111.298C63.5815 111.062 63.533 110.829 63.4386 110.612ZM60.6115 109.026C60.4914 108.885 60.4265 108.706 60.4288 108.521C60.4312 108.335 60.5005 108.157 60.6241 108.019C60.7809 107.892 60.9634 107.8 61.1591 107.749V109.327C60.9589 109.263 60.773 109.161 60.6115 109.026ZM62.3284 112.022C62.1568 112.201 61.9313 112.319 61.6865 112.357H61.6626V110.547H61.6865C61.9235 110.612 62.1446 110.725 62.336 110.879C62.4109 110.95 62.4695 111.036 62.5075 111.132C62.5456 111.227 62.5622 111.33 62.5563 111.433C62.5607 111.651 62.4803 111.862 62.3322 112.022H62.3284Z" fill="#1C0E0C"/>
<path d="M27.8091 71.0252C30.0045 71.0252 31.7842 69.2455 31.7842 67.0501C31.7842 64.8547 30.0045 63.075 27.8091 63.075C25.6137 63.075 23.834 64.8547 23.834 67.0501C23.834 69.2455 25.6137 71.0252 27.8091 71.0252Z" fill="#F4F1ED" stroke="#070707" stroke-linecap="round" stroke-linejoin="round"/>
<path d="M174.832 168.55C177.027 168.55 178.807 166.77 178.807 164.575C178.807 162.379 177.027 160.599 174.832 160.599C172.637 160.599 170.857 162.379 170.857 164.575C170.857 166.77 172.637 168.55 174.832 168.55Z" fill="#F4F1ED" stroke="#070707" stroke-linecap="round" stroke-linejoin="round"/>
<path d="M187.069 83.2601C187.997 83.2601 188.748 82.5083 188.748 81.581C188.748 80.6536 187.997 79.9018 187.069 79.9018C186.142 79.9018 185.39 80.6536 185.39 81.581C185.39 82.5083 186.142 83.2601 187.069 83.2601Z" fill="#F4F1ED" stroke="#070707" stroke-linecap="round" stroke-linejoin="round"/>
<path d="M180.501 171.839C181.197 171.839 181.761 171.275 181.761 170.579C181.761 169.883 181.197 169.319 180.501 169.319C179.805 169.319 179.241 169.883 179.241 170.579C179.241 171.275 179.805 171.839 180.501 171.839Z" fill="#F4F1ED" stroke="#070707" stroke-linecap="round" stroke-linejoin="round"/>
<path d="M26.9905 132.293C27.6863 132.293 28.2505 131.729 28.2505 131.033C28.2505 130.337 27.6863 129.773 26.9905 129.773C26.2946 129.773 25.7305 130.337 25.7305 131.033C25.7305 131.729 26.2946 132.293 26.9905 132.293Z" fill="#C5DCDD"/>
<path d="M163.634 150.322H77.9834V178.826H163.634V150.322Z" fill="#F4F1ED" stroke="#070707" stroke-linecap="round" stroke-linejoin="round"/>
<path d="M147.604 150.322H67.498V178.826H147.604V150.322Z" fill="#F4F1ED" stroke="#070707" stroke-linecap="round" stroke-linejoin="round"/>
<path d="M163.917 142.163H67.2783V152.254H163.917V142.163Z" fill="#1C0E0C"/>
<path d="M167.19 140.231H74.4272V150.322H167.19V140.231Z" fill="#F4F1ED" stroke="#070707" stroke-linecap="round" stroke-linejoin="round"/>
<path d="M150.928 140.231H64.1704V150.322H150.928V140.231Z" fill="#F4F1ED" stroke="#070707" stroke-linecap="round" stroke-linejoin="round"/>
<path d="M153.551 132.644C153.492 133.336 152.245 136.637 152.245 136.637L88.4985 134.478V130.92C88.4985 124.956 90.5251 119.805 91.5988 117.568C93.254 114.114 95.5462 114.975 95.5462 114.975C95.5462 114.975 101.781 121.069 108.773 121.069C110.121 121.069 111.088 120.355 111.776 119.317C112.189 118.673 112.511 117.974 112.732 117.242C113.023 116.289 113.228 115.311 113.343 114.321C113.396 113.901 113.548 113.501 113.788 113.153C114.028 112.806 114.348 112.521 114.721 112.323C115.094 112.126 115.51 112.021 115.932 112.018C116.355 112.015 116.771 112.114 117.147 112.307C119.893 113.718 123.226 116.876 132.147 121.697C132.595 121.94 133.056 122.186 133.531 122.436C144.389 128.143 153.436 126.018 153.551 132.644Z" fill="#F4F1ED" stroke="#070707" stroke-linecap="round" stroke-linejoin="round"/>
<path d="M146.383 139.789C148.23 139.789 150.48 138.953 151.69 137.601C152.899 136.249 153.915 133.782 153.348 131.131H153.297C152.688 134.404 149.753 136.009 147.545 136.009L92.2787 134.388C90.5643 134.388 89.0978 133.204 88.5024 131.529V135.241C88.5024 137.758 90.3238 139.789 92.5719 139.789H146.383Z" fill="#F4F1ED" stroke="#070707" stroke-linecap="round" stroke-linejoin="round"/>
<path d="M111.778 119.315C111.293 121.25 108.151 123.311 99.0354 120.607C91.444 118.355 88.4985 127.816 88.4985 131.529V130.917C88.4985 124.953 90.5251 119.803 91.5988 117.566C93.254 114.112 95.5462 114.973 95.5462 114.973C95.5462 114.973 101.781 121.066 108.773 121.066C110.121 121.066 111.088 120.353 111.776 119.314L111.778 119.315Z" fill="#9D94FF" stroke="black" stroke-linecap="round" stroke-linejoin="round"/>
<path d="M134.575 122.966C120.769 118.244 113.86 116.107 112.732 117.24C113.024 116.286 113.228 115.308 113.344 114.318C113.396 113.899 113.549 113.499 113.789 113.151C114.028 112.803 114.349 112.519 114.722 112.321C115.095 112.123 115.511 112.019 115.933 112.016C116.355 112.013 116.772 112.112 117.148 112.304C119.9 113.72 124.483 117.917 134.575 122.966Z" fill="#F4F1ED" stroke="#070707" stroke-linecap="round" stroke-linejoin="round"/>
<path d="M120.478 118.247L122.268 115.525C122.372 115.366 122.508 115.23 122.667 115.125C122.825 115.02 123.004 114.949 123.191 114.915C123.378 114.881 123.57 114.886 123.756 114.929C123.941 114.971 124.116 115.052 124.269 115.164V115.164C124.544 115.365 124.737 115.659 124.811 115.992C124.885 116.324 124.835 116.672 124.671 116.97L124.433 117.406" stroke="#070707" stroke-linecap="round" stroke-linejoin="round"/>
<path d="M124.583 119.435L125.851 117.449C125.942 117.31 126.06 117.191 126.199 117.099C126.337 117.007 126.493 116.945 126.657 116.915C126.82 116.886 126.988 116.89 127.15 116.927C127.312 116.964 127.465 117.034 127.599 117.133V117.133C127.839 117.308 128.007 117.566 128.071 117.856C128.136 118.147 128.092 118.451 127.949 118.711L127.74 119.089" stroke="#070707" stroke-linecap="round" stroke-linejoin="round"/>
<path d="M130.879 120.979C131.031 120.704 131.076 120.382 131.008 120.075C130.94 119.767 130.763 119.495 130.509 119.309V119.309C130.367 119.205 130.206 119.131 130.034 119.092C129.863 119.053 129.685 119.048 129.512 119.08C129.339 119.111 129.174 119.177 129.028 119.274C128.881 119.371 128.755 119.497 128.659 119.644L127.857 120.695" stroke="#070707" stroke-linecap="round" stroke-linejoin="round"/>
<path d="M134.549 122.953C131.292 123.543 128.267 125.039 125.821 127.27C123.376 129.501 121.609 132.377 120.725 135.567L118.181 135.481C118.988 132.195 120.613 129.165 122.903 126.674C125.194 124.183 128.077 122.31 131.284 121.23C131.566 121.385 131.853 121.542 132.146 121.699C132.594 121.943 133.056 122.189 133.531 122.438C133.871 122.618 134.212 122.788 134.549 122.953Z" fill="#9D94FF" stroke="black" stroke-linecap="round" stroke-linejoin="round"/>
<path d="M140.855 125.396V125.73C137.613 125.734 134.443 126.682 131.732 128.459C129.021 130.236 126.886 132.765 125.589 135.736L122.946 135.645C124.05 132.726 125.849 130.12 128.187 128.052C130.525 125.984 133.332 124.517 136.364 123.778C137.831 124.396 139.33 124.937 140.855 125.396Z" fill="#9D94FF" stroke="black" stroke-linecap="round" stroke-linejoin="round"/>
</svg>
